# Blender 4.5.0
# www.blender.org
mtllib xd.mtl
o Cube
v -0.089193 -0.089193 1.000000
v -0.089193 0.089193 1.000000
v -1.000000 -1.000000 -1.000000
v -1.000000 1.000000 -1.000000
v 0.089193 -0.089193 1.000000
v 0.089193 0.089193 1.000000
v 1.000000 -1.000000 -1.000000
v 1.000000 1.000000 -1.000000
v -1.000000 1.793496 1.000000
v -1.000000 1.793496 -1.000000
v 1.000000 1.793496 -1.000000
v 1.000000 1.793496 1.000000
v -1.000000 1.000000 -0.984480
v 1.000000 1.000000 -0.984480
v -1.000000 1.793496 -0.984480
v 1.000000 1.793496 -0.984480
v -3.857687 1.000000 1.000000
v -3.857687 1.000000 -1.000000
v -3.857687 1.793496 1.000000
v -3.857687 1.793496 -1.000000
v -1.000000 1.000000 -3.842167
v 1.000000 1.000000 -3.842167
v -1.000000 1.793496 -3.842167
v 1.000000 1.793496 -3.842167
v -1.000000 -1.000000 1.000000
v -1.000000 1.000000 1.000000
v 1.000000 1.000000 1.000000
v 1.000000 -1.000000 1.000000
v -1.000000 -1.000000 1.000000
v -1.000000 1.000000 1.000000
v 1.000000 1.000000 1.000000
v 1.000000 -1.000000 1.000000
v -1.000000 -1.000000 1.000000
v -1.000000 1.000000 1.000000
v 1.000000 1.000000 1.000000
v 1.000000 -1.000000 1.000000
v -0.089193 -0.089193 4.785794
v -0.089193 0.089193 4.785794
v 0.089193 0.089193 4.785794
v 0.089193 -0.089193 4.785794
v 1.000000 3.826869 -1.000000
v -1.000000 3.446194 1.000000
v -1.000000 3.826869 0.619326
v 1.000000 3.826869 0.619326
v 1.000000 3.446194 1.000000
v -0.644273 3.826869 -1.000000
v -1.000000 3.471142 -1.000000
v -1.000000 3.826869 -0.644273
v -1.000000 -0.333333 1.000000
v -1.000000 0.333333 1.000000
v -1.000000 0.333333 -1.000000
v -1.000000 -0.333333 -1.000000
v 1.000000 0.333333 -1.000000
v 1.000000 -0.333333 -1.000000
v 1.000000 0.333333 1.000000
v 1.000000 -0.333333 1.000000
v -1.000000 -0.333333 1.000000
v -1.000000 0.333333 1.000000
v 1.000000 0.333333 1.000000
v 1.000000 -0.333333 1.000000
v -1.000000 -0.333333 1.000000
v -1.000000 0.333333 1.000000
v 1.000000 0.333333 1.000000
v 1.000000 -0.333333 1.000000
v -0.089193 -0.029731 1.000000
v -0.089193 0.029731 1.000000
v 0.089193 0.029731 1.000000
v 0.089193 -0.029731 1.000000
v -0.089193 -0.029731 4.785794
v -0.089193 0.029731 4.785794
v 0.089193 0.029731 4.785794
v 0.089193 -0.029731 4.785794
v -2.351334 -0.333333 1.000000
v -2.351334 0.333333 1.000000
v -1.955538 0.333333 -1.955538
v -1.955538 -0.333333 -1.955538
v 1.955538 0.333333 -1.955538
v 1.955538 -0.333333 -1.955538
v 2.351334 0.333333 1.000000
v 2.351334 -0.333333 1.000000
v -1.930052 -0.643351 1.930052
v -1.930052 0.643351 1.930052
v 1.930052 0.643351 1.930052
v 1.930052 -0.643351 1.930052
v -1.000000 -0.333333 2.351334
v -1.000000 0.333333 2.351334
v 1.000000 0.333333 2.351334
v 1.000000 -0.333333 2.351334
v -0.952233 -0.029731 2.039840
v -0.952233 0.029731 2.039840
v 0.952233 0.029731 2.039840
v 0.952233 -0.029731 2.039840
v -1.044731 -0.029731 5.741332
v -1.044731 0.029731 5.741332
v 1.044731 0.029731 5.741332
v 1.044731 -0.029731 5.741332
v -0.592291 3.049956 1.000000
v 0.687602 3.049956 1.000000
v 0.115735 2.532553 1.000000
v -0.578675 2.341930 1.000000
v 0.646755 2.328315 1.000000
v -0.081001 -1.772504 -0.699888
v -0.592291 3.049956 1.633862
v 0.687602 3.049956 1.633862
v 0.115735 2.532553 1.633862
v -0.578675 2.341930 1.633862
v 0.646755 2.328315 1.633862
vn -1.0000 -0.0000 -0.0000
vn -0.0000 -0.0000 -1.0000
vn 1.0000 -0.0000 -0.0000
vn -0.0000 1.0000 -0.0000
vn -0.0000 -1.0000 -0.0000
vn -0.0000 -0.0000 1.0000
vn -0.0000 0.7071 0.7071
vn -0.5774 0.5774 -0.5774
vn 0.5705 0.7950 0.2059
vn -0.0000 -0.9487 -0.3162
vn 0.5705 -0.7950 0.2059
vn -0.5705 -0.7950 0.2059
vn -0.0000 0.9487 -0.3162
vn -0.5705 0.7950 0.2059
vn -0.9997 -0.0000 -0.0250
vn 0.9997 -0.0000 -0.0250
vn -0.9884 -0.0000 0.1516
vn 0.9884 -0.0000 0.1516
vn 0.4126 -0.0000 0.9109
vn -0.4126 -0.0000 0.9109
vn 0.9109 -0.0000 0.4126
vn -0.9109 -0.0000 0.4126
vn 0.9912 -0.0000 -0.1327
vn -0.9912 -0.0000 -0.1327
vn -0.3162 0.9487 -0.0000
vn -0.3162 -0.9487 -0.0000
vn 0.3162 -0.9487 -0.0000
vn 0.3162 0.9487 -0.0000
vn -0.0111 -0.9999 -0.0000
vn 0.9984 -0.0565 -0.0000
vn -0.9998 -0.0192 -0.0000
vt 0.541667 0.000000
vt 0.625000 0.000000
vt 0.625000 0.250000
vt 0.541667 0.250000
vt 0.625000 0.500000
vt 0.541667 0.500000
vt 0.625000 0.750000
vt 0.541667 0.750000
vt 0.511149 0.863851
vt 0.511149 0.886149
vt 0.125000 0.500000
vt 0.375000 0.500000
vt 0.375000 0.750000
vt 0.125000 0.750000
vt 0.625000 1.000000
vt 0.875000 0.500000
vt 0.875000 0.750000
vt 0.458333 0.750000
vt 0.375000 1.000000
vt 0.541667 1.000000
vt 0.503716 0.886149
vt 0.496284 0.863851
vt 0.488851 0.863851
vt 0.488851 0.886149
vt 0.503716 0.863851
vt 0.503716 0.886149
vt 0.503716 0.863851
vt 0.496284 0.886149
vt 0.625000 0.708581
vt 0.625000 1.000000
vt 0.625000 0.750000
vt 0.625000 0.789050
vt 0.625000 0.794156
vt 0.625000 0.947334
vt 0.625000 0.949036
vt 0.830534 0.500000
vt 0.875000 0.500000
vt 0.875000 0.544466
vt 0.875000 0.702416
vt 0.496284 0.863851
vt 0.458333 0.000000
vt 0.458333 1.000000
vt 0.458333 0.250000
vt 0.375000 0.000000
vt 0.458333 0.500000
vt 0.375000 0.250000
vt 0.625000 0.860533
s 0
f 50/1/1 26/2/1 4/3/1 51/4/1
f 51/4/2 4/3/2 8/5/2 53/6/2
f 53/6/3 8/5/3 27/7/3 55/8/3
f 6/9/4 2/10/4 38/10/4 39/9/4
f 3/11/5 7/12/5 28/13/5 25/14/5
f 27/7/3 8/5/3 11/5/3 12/7/3
f 16/5/3 14/5/3 22/5/3 24/5/3
f 26/15/6 27/7/6 12/7/6 9/15/6
f 4/3/3 10/3/3 15/3/3 13/3/3
f 4/3/5 26/2/5 17/2/5 18/3/5
f 10/16/5 11/5/5 16/5/5 15/16/5
f 8/5/4 4/3/4 13/3/4 14/5/4
f 11/5/1 8/5/1 14/5/1 16/5/1
f 18/3/1 17/2/1 19/2/1 20/3/1
f 22/5/2 21/3/2 23/3/2 24/5/2
f 14/5/5 13/3/5 21/3/5 22/5/5
f 26/15/6 9/15/6 19/15/6 17/15/6
f 13/3/1 15/3/1 23/3/1 21/3/1
f 9/17/4 10/16/4 20/16/4 19/17/4
f 15/16/4 16/5/4 24/5/4 23/16/4
f 10/3/2 4/3/2 18/3/2 20/3/2
f 58/1/4 30/2/4 26/2/4 50/1/4
f 60/18/4 32/13/4 28/13/4 56/18/4
f 32/13/4 29/19/4 25/19/4 28/13/4
f 30/15/4 31/7/4 27/7/4 26/15/4
f 62/20/4 34/15/4 30/15/4 58/20/4
f 64/18/4 36/13/4 32/13/4 60/18/4
f 36/13/4 33/19/4 29/19/4 32/13/4
f 34/15/4 35/7/4 31/7/4 30/15/4
f 66/21/6 2/10/6 34/15/6 62/20/6
f 68/22/6 5/23/6 36/13/6 64/18/6
f 5/23/6 1/24/6 33/19/6 36/13/6
f 2/10/6 6/9/6 35/7/6 34/15/6
f 71/25/6 39/9/6 38/10/6 70/26/6
f 67/27/3 6/9/3 39/9/3 71/25/3
f 1/24/5 5/23/5 40/23/5 37/24/5
f 65/28/1 1/24/1 37/24/1 69/28/1
f 44/29/7 43/15/7 42/30/7 45/31/7
f 9/15/6 12/7/6 45/31/6 98/32/6 101/33/6 100/34/6 97/35/6 42/30/6
f 12/7/3 11/5/3 41/5/3 44/29/3 45/31/3
f 46/36/8 47/37/8 48/38/8
f 41/5/4 46/36/4 48/38/4 43/39/4 44/29/4
f 11/5/2 10/16/2 47/37/2 46/36/2 41/5/2
f 10/16/1 9/17/1 42/17/1 43/39/1 48/38/1 47/37/1
f 2/10/1 66/21/1 70/26/1 38/10/1
f 66/21/9 62/20/9 86/20/9 90/21/9
f 5/23/3 68/22/3 72/40/3 40/23/3
f 49/41/10 57/41/10 81/41/10 73/41/10
f 40/23/6 72/40/6 69/28/6 37/24/6
f 65/28/5 69/28/5 93/28/5 89/28/5
f 6/9/6 67/27/6 63/8/6 35/7/6
f 50/1/4 51/4/4 75/4/4 74/1/4
f 1/24/6 65/28/6 61/42/6 33/19/6
f 61/42/11 65/28/11 89/28/11 85/42/11
f 35/7/4 63/8/4 59/8/4 31/7/4
f 60/18/10 56/18/10 80/18/10 84/18/10
f 33/19/4 61/42/4 57/42/4 29/19/4
f 70/26/4 66/21/4 90/21/4 94/26/4
f 31/7/4 59/8/4 55/8/4 27/7/4
f 52/43/5 49/41/5 73/41/5 76/43/5
f 29/44/4 57/41/4 49/41/4 25/44/4
f 68/22/12 64/18/12 88/18/12 92/22/12
f 7/12/3 54/45/3 56/18/3 28/13/3
f 55/8/13 59/8/13 83/8/13 79/8/13
f 3/46/2 52/43/2 54/45/2 7/12/2
f 51/4/4 53/6/4 77/6/4 75/4/4
f 25/44/1 49/41/1 52/43/1 3/46/1
f 63/8/14 67/27/14 91/27/14 87/8/14
f 90/21/15 89/28/15 93/28/15 94/26/15
f 92/22/16 91/27/16 95/25/16 96/40/16
f 96/40/6 95/25/6 94/26/6 93/28/6
f 91/27/17 92/22/17 88/18/17 87/8/17
f 89/28/18 90/21/18 86/20/18 85/42/18
f 87/8/19 88/18/19 84/18/19 83/8/19
f 85/42/20 86/20/20 82/20/20 81/42/20
f 83/8/21 84/18/21 80/18/21 79/8/21
f 81/41/22 82/1/22 74/1/22 73/41/22
f 78/45/23 77/6/23 79/8/23 80/18/23
f 76/43/2 75/4/2 77/6/2 78/45/2
f 73/41/24 74/1/24 75/4/24 76/43/24
f 72/40/5 68/22/5 92/22/5 96/40/5
f 58/1/13 50/1/13 74/1/13 82/1/13
f 59/8/25 63/8/25 87/8/25 83/8/25
f 67/27/4 71/25/4 95/25/4 91/27/4
f 56/18/5 54/45/5 78/45/5 80/18/5
f 64/18/26 60/18/26 84/18/26 88/18/26
f 69/28/5 72/40/5 96/40/5 93/28/5
f 53/6/4 55/8/4 79/8/4 77/6/4
f 57/42/27 61/42/27 85/42/27 81/42/27
f 71/25/4 70/26/4 94/26/4 95/25/4
f 54/45/5 52/43/5 76/43/5 78/45/5
f 62/20/28 58/20/28 82/20/28 86/20/28
f 103/35/6 106/34/6 107/33/6 104/32/6 105/47/6
f 42/30/6 97/35/6 98/32/6 45/31/6
f 98/32/4 97/35/4 103/35/4 104/32/4
f 100/34/29 101/33/29 107/33/29 106/34/29
f 105/47/6 104/32/6 103/35/6
f 101/33/30 98/32/30 104/32/30 107/33/30
f 97/35/31 100/34/31 106/34/31 103/35/31
l 99 102
